<?xml version="1.0" encoding="UTF-8"?>
<svg version="1.1" xmlns="http://www.w3.org/2000/svg" width="574" height="805">
<path d="M0 0 C187.44 0 374.88 0 568 0 C568 10.12500215 568 10.12500215 567.6805492 13.69816685 C567.60913457 14.51880009 567.53771993 15.33943334 567.46414122 16.18493426 C567.3842098 17.05715196 567.30427837 17.92936965 567.22192478 18.82801819 C567.13780569 19.78119568 567.05368661 20.73437318 566.96701846 21.71643484 C566.68463384 24.90513624 566.39657588 28.09329901 566.10853577 31.28149414 C565.90266881 33.59270538 565.69715158 35.9039478 565.49195379 38.21521854 C564.92739116 44.56271415 564.35785631 50.90975528 563.78750956 57.25673342 C563.23586936 63.39988198 562.68876186 69.54343508 562.14116572 75.68694517 C561.02090955 88.25365127 559.8969202 100.82002085 558.77076912 113.38619995 C557.65537386 125.83243457 556.54154778 138.27880792 555.42983818 150.72537231 C555.32607986 151.88701644 555.32607986 151.88701644 555.22022541 153.07212812 C554.9394361 156.21581444 554.65865879 159.35950183 554.37789703 162.50319061 C551.81947028 191.14988626 549.25725239 219.79624149 546.69262695 248.44238281 C544.27196022 275.48058251 541.85351444 302.51897956 539.43774414 329.55761719 C539.36332441 330.39055719 539.28890468 331.2234972 539.2122298 332.08167781 C538.83738993 336.27706357 538.46255385 340.47244966 538.08771929 344.66783589 C538.01375084 345.49573741 537.9397824 346.32363893 537.86357249 347.17662837 C537.71441708 348.84607517 537.56526248 350.51552204 537.41610869 352.18496899 C535.04050069 378.77454124 532.6632688 405.36396833 530.2855994 431.95335633 C529.58959674 439.73674553 528.89364972 447.52013969 528.19784856 455.30354691 C526.73454547 471.67218183 525.27069191 488.04076718 523.80501182 504.40918946 C523.19885483 511.17876506 522.59300447 517.94836771 521.98797607 524.71804428 C521.43425726 530.91344774 520.87963705 537.10876982 520.3242889 543.30402744 C520.123399 545.54680778 519.922834 547.78961725 519.72262443 550.03245842 C519.4506149 553.07904701 519.17741513 556.12552661 518.90391636 559.17198181 C518.8263261 560.04419951 518.74873584 560.91641721 518.66879436 561.81506574 C518.18203378 567.21904158 517.6152977 572.60909997 517 578 C512.52480974 579.99593393 508.17867155 581.63700018 503.44506836 582.94750977 C502.82245778 583.12132927 502.1998472 583.29514877 501.55836964 583.47423553 C499.48679253 584.05129271 497.41335605 584.62134542 495.33984375 585.19140625 C493.8368185 585.60850488 492.33391248 586.02603336 490.83111572 586.44395447 C486.72970927 587.58319744 482.62663454 588.71632292 478.52325058 589.84841919 C474.15228015 591.05550627 469.78290592 592.26834512 465.41333008 593.48046875 C455.93528271 596.10852605 446.45527906 598.72947476 436.97485352 601.34893799 C430.93933194 603.01659257 424.90419327 604.68562976 418.86914062 606.35498047 C417.85994001 606.63412324 416.8507394 606.91326601 415.81095695 607.20086765 C411.72150395 608.33201231 407.63205994 609.46318947 403.54263687 610.59444237 C393.40220968 613.39954767 383.26164178 616.20412881 373.11948586 619.00297832 C347.58185314 626.04540174 347.58185314 626.04540174 322.0804882 633.21767426 C320.22384319 633.74526506 318.36687686 634.27172471 316.50990295 634.79815674 C311.2058695 636.30235525 305.90446112 637.81451986 300.6081543 639.34570312 C298.8443359 639.84799918 297.08042715 640.3499781 295.31640625 640.8515625 C294.55766205 641.07514435 293.79891785 641.2987262 293.0171814 641.52908325 C285.6701213 643.5984948 279.63056898 643.19327664 272.37182617 641.10180664 C271.26753407 640.79548498 271.26753407 640.79548498 270.14093304 640.48297501 C267.68913869 639.80056387 265.24116588 639.10535229 262.79296875 638.41015625 C261.0319746 637.91733794 259.27074802 637.42534957 257.50930786 636.93412781 C253.72123877 635.87590359 249.93481066 634.81205944 246.14956665 633.74377441 C240.12650842 632.04397718 234.1000593 630.35643845 228.07299805 628.67089844 C220.71107434 626.61123244 213.34996085 624.54871739 205.98985386 622.48256874 C187.65431708 617.33591694 169.30499767 612.23920617 150.95395756 607.14816093 C144.28203882 605.29711205 137.61091236 603.44322991 130.94018555 601.58789062 C115.293998 597.23700418 99.64651909 592.89216926 83.98046875 588.61328125 C81.70596174 587.99060215 79.43146568 587.36788304 77.15698242 586.74511719 C73.20733026 585.66396876 69.25552226 584.5913191 65.30200195 583.52441406 C63.63875095 583.06996763 61.97557705 582.61523886 60.3125 582.16015625 C59.58093185 581.96561356 58.84936371 581.77107086 58.09562683 581.57063293 C53.22744801 580.22744801 53.22744801 580.22744801 51 578 C50.50973892 575.04078579 50.50973892 575.04078579 50.16412354 571.1436615 C50.09786583 570.42461415 50.03160812 569.7055668 49.96334261 568.96473014 C49.74070198 566.52397545 49.53110295 564.08226929 49.32128906 561.64038086 C49.16292113 559.87435172 49.00375837 558.1083937 48.84386921 556.34250164 C48.40172191 551.43321642 47.97098228 546.52298389 47.54188085 541.61254358 C47.07032711 536.23959075 46.58821231 530.86758424 46.10740662 525.49545288 C45.26070292 516.01869721 44.42071249 506.54136477 43.58505249 497.06362915 C42.35480842 483.11097905 41.11500004 469.15919195 39.87273967 455.20760715 C39.27697142 448.51611596 38.6816243 441.82458734 38.08647156 435.13304138 C38.02600367 434.45319015 37.96553578 433.77333893 37.90323553 433.07288615 C36.95235602 422.38100393 36.00382159 411.68891495 35.05647278 400.99671936 C31.22137909 357.71456579 27.36359764 314.43447071 23.49533403 271.15526932 C22.28425514 257.60518496 21.07388717 244.05503725 19.86410522 230.50483704 C19.77880165 229.54939352 19.69349808 228.59395 19.60560955 227.60955364 C18.65951228 217.01258883 17.71357357 206.41560987 16.76771736 195.81862354 C16.51055691 192.9375262 16.25339624 190.05642888 15.99623515 187.1753316 C15.82509121 185.25791007 15.65394985 183.3404883 15.48281108 181.42306631 C14.54049916 170.86559454 13.59789231 160.30814924 12.65449524 149.75077438 C12.56938041 148.79826367 12.48426559 147.84575295 12.39657152 146.86437827 C12.2690866 145.43771285 12.2690866 145.43771285 12.13902622 143.98222589 C10.49096537 125.53894957 8.84484797 107.09550207 7.20286757 88.65168333 C6.36829886 79.27794444 5.53198084 69.90436541 4.69321527 60.5310011 C4.12869767 54.22046776 3.56643614 47.90973604 3.00600687 41.59883832 C2.68506111 37.98544124 2.36312685 34.37213958 2.03848886 30.75907218 C1.68818053 26.86000603 1.34265339 22.96052468 0.99760437 19.06098938 C0.89520319 17.92977594 0.79280201 16.79856251 0.68729776 15.63306987 C0.59574382 14.58950553 0.50418987 13.54594118 0.40986156 12.47075367 C0.33011221 11.5765307 0.25036286 10.68230774 0.16819686 9.7609871 C-0.02967593 6.51286326 0 3.25414538 0 0 Z " fill="#264DE4" transform="translate(5,160)"/>
<path d="M0 0 C116.82 0 233.64 0 354 0 C353.42395937 10.94477205 352.85022552 21.60622496 351.5625 32.4375 C350.4847172 41.95010473 349.62639044 51.44721049 349 61 C348.29249941 71.77764283 347.24908438 82.48630678 346.03955078 93.21850586 C345.15982394 101.13548131 344.5448308 109.01486594 344.2109375 116.97265625 C344 120 344 120 343 123 C342.71983159 125.87300967 342.48278431 128.73467238 342.28125 131.61328125 C342.21844849 132.46045212 342.15564697 133.30762299 342.09094238 134.1804657 C341.89031907 136.89089106 341.6947143 139.60164418 341.5 142.3125 C341.30491563 145.01261223 341.10866583 147.71261754 340.90905762 150.41239929 C340.78498738 152.09173457 340.66352291 153.77126502 340.54504395 155.45100403 C340.23285923 159.68984216 339.73395917 163.80900896 339 168 C338.84812923 170.73086143 338.72595627 173.45495016 338.625 176.1875 C338.27318567 184.13113844 337.49529295 191.98002358 336.5625 199.875 C335.32033107 210.43717291 334.41862896 220.98049177 333.82250977 231.59912109 C333.25914938 240.9318231 332.24970599 250.19721702 331.23158264 259.4896698 C329.70374061 273.5301742 328.41339042 287.59084464 327.12921143 301.6552124 C326.87288677 304.4560142 326.6142109 307.25659681 326.35553551 310.05718231 C324.81925918 326.69788584 323.34901663 343.34294317 322 360 C313.37080926 363.09200822 304.64197631 365.44472783 295.76733398 367.71728516 C289.97595246 369.20632417 284.22401756 370.77054148 278.5 372.5 C271.79168216 374.52487414 265.03635922 376.31793465 258.25 378.0625 C252.29274286 379.59414622 246.362466 381.1311451 240.5 383 C234.78048292 384.82155 228.99995653 386.32267155 223.1875 387.8125 C212.76693267 390.48665221 202.44112815 393.4342436 192.125 396.484375 C190.79637939 396.87629028 190.79637939 396.87629028 189.44091797 397.27612305 C187.92777646 397.72485925 186.41606951 398.17850266 184.90673828 398.63989258 C178.76788864 400.48350616 173.27272425 400.56818106 167 399 C167 398.34 167 397.68 167 397 C165.7625 396.9175 164.525 396.835 163.25 396.75 C158.25604444 396.20734971 153.80021493 394.73450827 149.08984375 393.03515625 C146.12099488 392.04053558 143.14167238 391.25737939 140.09985352 390.52026367 C136.54341451 389.63911363 133.02540177 388.62184312 129.5 387.625 C122.15270403 385.55941194 114.77734321 383.67245225 107.35546875 381.89453125 C104 381 104 381 101.62158203 380.0246582 C98.98849623 378.99550369 96.45687957 378.32375102 93.69921875 377.7109375 C92.72275391 377.49179687 91.74628906 377.27265625 90.74023438 377.046875 C89.73283203 376.82515625 88.72542969 376.6034375 87.6875 376.375 C86.66076172 376.14554688 85.63402344 375.91609375 84.57617188 375.6796875 C82.05158679 375.1160592 79.52620953 374.55629378 77 374 C77 373.34 77 372.68 77 372 C76.11957031 371.86722656 75.23914063 371.73445313 74.33203125 371.59765625 C73.17058594 371.42105469 72.00914062 371.24445313 70.8125 371.0625 C69.66394531 370.88847656 68.51539063 370.71445312 67.33203125 370.53515625 C64.53674788 370.08620687 61.77066414 369.57917838 59 369 C59 368.34 59 367.68 59 367 C58.11957031 366.86722656 57.23914063 366.73445313 56.33203125 366.59765625 C55.17058594 366.42105469 54.00914062 366.24445313 52.8125 366.0625 C51.08966797 365.80146484 51.08966797 365.80146484 49.33203125 365.53515625 C46.53674788 365.08620687 43.77066414 364.57917838 41 364 C41 363.34 41 362.68 41 362 C40.36191406 361.93941406 39.72382813 361.87882812 39.06640625 361.81640625 C38.24011719 361.73261719 37.41382813 361.64882813 36.5625 361.5625 C35.73878906 361.48128906 34.91507813 361.40007812 34.06640625 361.31640625 C32 361 32 361 31 360 C30.72199936 357.70473699 30.50665579 355.4018528 30.31640625 353.09765625 C30.25665619 352.39312317 30.19690613 351.68859009 30.13534546 350.96270752 C30.00730147 349.44979242 29.88119253 347.93671257 29.75680542 346.42349243 C29.43350096 342.49504106 29.09580312 338.56783608 28.7578125 334.640625 C28.69208542 333.87418167 28.62635834 333.10773834 28.55863953 332.31806946 C28.09601872 326.97314493 27.56708164 321.64056683 26.9375 316.3125 C25.72019869 305.89614635 24.8573244 295.45126971 24 285 C23.90686523 283.87770996 23.81373047 282.75541992 23.71777344 281.59912109 C23.43162635 278.12898144 23.15219404 274.65836541 22.875 271.1875 C22.74351562 269.58745117 22.74351562 269.58745117 22.609375 267.95507812 C22.52945313 266.93220703 22.44953125 265.90933594 22.3671875 264.85546875 C22.26059814 263.51971802 22.26059814 263.51971802 22.15185547 262.15698242 C21.94112837 257.77609472 22 253.38595291 22 249 C45.43 249 68.86 249 93 249 C94.27631811 259.84870395 95.43688705 270.55741898 96.125 281.4375 C96.21136719 282.70787109 96.29773438 283.97824219 96.38671875 285.28710938 C96.83796236 292.20259673 97.12723473 299.06974628 97 306 C98.00353516 306.15299561 98.00353516 306.15299561 99.02734375 306.30908203 C105.55768015 307.33440835 111.79394934 309.0529614 118.10522461 310.97143555 C123.69865564 312.65624811 129.3248399 314.11753318 135 315.5 C141.40176842 317.0643975 147.74694175 318.74156208 154.0625 320.625 C154.76036621 320.83205566 155.45823242 321.03911133 156.17724609 321.25244141 C159.20868086 322.15540652 162.23449538 323.07319183 165.25390625 324.015625 C166.20136719 324.29921875 167.14882813 324.5828125 168.125 324.875 C168.91132813 325.11992188 169.69765625 325.36484375 170.5078125 325.6171875 C177.37028954 326.67129839 184.68838641 323.93478208 191.3125 322.25 C192.37702393 321.98123047 193.44154785 321.71246094 194.53833008 321.43554688 C203.73371801 319.09854404 212.87758394 316.60559009 222 314 C222.88945312 313.74686035 223.77890625 313.4937207 224.6953125 313.23291016 C229.24985793 311.93665265 233.80341883 310.63702571 238.35546875 309.33203125 C239.54922119 308.99292725 239.54922119 308.99292725 240.76708984 308.64697266 C242.76594397 308.06781636 244.75309208 307.44860949 246.73828125 306.82421875 C249.96837018 306.00799268 252.68476299 305.83828112 256 306 C255.98839844 305.13117188 255.97679687 304.26234375 255.96484375 303.3671875 C255.95582031 302.21476562 255.94679688 301.06234375 255.9375 299.875 C255.92589844 298.73804688 255.91429687 297.60109375 255.90234375 296.4296875 C256 293 256 293 256.48144531 290.13793945 C256.96849587 287.1906415 257.22825816 284.34383361 257.39453125 281.36328125 C258.31062779 265.68027529 259.58996257 250.05692658 261.07421875 234.41796875 C261.26171415 232.42527098 261.44901181 230.43255459 261.6361084 228.43981934 C262.08846819 223.62632938 262.54347345 218.81309648 263 214 C261.73825738 214.00092179 260.47651476 214.00184359 259.17653751 214.00279331 C229.25649601 214.02442948 199.33645651 214.04092964 169.41640911 214.05106533 C165.73748562 214.05231611 162.05856214 214.05361042 158.37963867 214.05493164 C157.28098121 214.05532511 157.28098121 214.05532511 156.16012865 214.05572652 C144.28502582 214.06008333 132.4099278 214.06797094 120.53482784 214.0771528 C108.35893969 214.08648903 96.18305409 214.09205554 84.00716251 214.09408849 C76.48794689 214.09546379 68.96874489 214.0998147 61.44953346 214.10791647 C55.69350728 214.11380426 49.93748992 214.11445904 44.18146133 214.11310768 C41.81303384 214.1133842 39.44460585 214.11539185 37.07618141 214.11920547 C33.85790213 214.12413603 30.63968246 214.12300066 27.42140198 214.12025452 C25.99584774 214.12462378 25.99584774 214.12462378 24.54149443 214.12908131 C18.11412121 214.11412121 18.11412121 214.11412121 17 213 C16.79174687 210.55690538 16.64404662 208.13565418 16.53515625 205.6875 C16.49755692 204.93470261 16.45995758 204.18190521 16.42121887 203.40629578 C16.3402211 201.78319268 16.26114898 200.15999261 16.18377686 198.53671265 C15.54815634 185.24162357 14.79408914 171.97588702 13.60961914 158.71679688 C13.5296167 157.80349609 13.44961426 156.89019531 13.3671875 155.94921875 C13.29612793 155.17924561 13.22506836 154.40927246 13.15185547 153.6159668 C12.94676266 150.08289694 13 146.53901762 13 143 C97.81 143 182.62 143 270 143 C270.33 135.74 270.66 128.48 271 121 C271.27739 117.22988523 271.56632948 113.48494721 271.9375 109.7265625 C272.02249756 108.8222348 272.10749512 107.9179071 272.19506836 106.98617554 C272.4584112 104.19861661 272.72913899 101.41183708 273 98.625 C273.18014957 96.72139784 273.35983805 94.81775198 273.5390625 92.9140625 C273.71313464 91.08069048 273.88759869 89.24735561 274.0625 87.4140625 C274.14169678 86.58379547 274.22089355 85.75352844 274.30249023 84.89810181 C274.41765991 83.7141835 274.41765991 83.7141835 274.53515625 82.50634766 C274.600979 81.82657867 274.66680176 81.14680969 274.73461914 80.44644165 C275.11289144 76.95929824 275.56493574 73.48051407 276 70 C186.9 70 97.8 70 6 70 C0 10 0 10 0 0 Z " fill="#FEFEFE" transform="translate(112,279)"/>
<path d="M0 0 C76.23 0 152.46 0 231 0 C231 3.63 231 7.26 231 11 C230.67 11.33 230.34 11.66 230 12 C229.70959509 14.1748059 229.48270441 16.35812737 229.28125 18.54296875 C229.2187204 19.21532059 229.1561908 19.88767242 229.09176636 20.58039856 C228.889251 22.78232295 228.69425854 24.98483292 228.5 27.1875 C228.39912079 28.30306274 228.39912079 28.30306274 228.29620361 29.44116211 C227.35491069 39.87342621 226.60941443 50.28953706 226.29101562 60.76245117 C226.09321998 66.90678002 226.09321998 66.90678002 225 68 C224.80055655 69.37332544 224.66267623 70.75568265 224.55102539 72.13891602 C224.4774733 73.02237198 224.4039212 73.90582794 224.32814026 74.8160553 C224.25208054 75.78554611 224.17602081 76.75503693 224.09765625 77.75390625 C224.01503036 78.76098129 223.93240448 79.76805634 223.84727478 80.8056488 C223.58142523 84.05760237 223.32184103 87.31002154 223.0625 90.5625 C222.89169632 92.66735185 222.72047684 94.77217001 222.54882812 96.87695312 C222.2040584 101.10935382 221.86200684 105.34196267 221.52148438 109.57470703 C221.17109664 113.91489494 220.81267114 118.25431245 220.44726562 122.59326172 C220.31220863 124.19777443 220.31220863 124.19777443 220.17442322 125.83470154 C220.0042539 127.85029273 219.83322967 129.86581202 219.66114807 131.88124084 C218.95530956 140.2462677 218.43282828 148.61679965 218 157 C217.34 157 216.68 157 216 157 C216.01481918 157.61555252 216.02963837 158.23110504 216.04490662 158.86531067 C216.1524418 167.09506432 215.48269677 175.19880284 214.72265625 183.38671875 C214.59004102 184.8571998 214.45792543 186.32772599 214.32627869 187.79829407 C213.98064546 191.64755117 213.62958195 195.49629119 213.2769165 199.34490967 C212.71506168 205.48340958 212.16044215 211.62256094 211.60796928 217.76191139 C211.41683328 219.87538783 211.22267406 221.98856886 211.02809143 224.10173035 C210.28854578 232.21842251 209.69763426 240.33173306 209.23249817 248.4680481 C208.88598727 253.73200281 208.2529453 258.95119339 207.625 264.1875 C205.86474789 279.52887535 204.93445432 294.92042708 204.00244141 310.33081055 C203.94268127 311.29365967 203.88292114 312.25650879 203.8213501 313.24853516 C203.70807981 315.07909184 203.59883843 316.90990331 203.49407959 318.7409668 C203.11219051 324.88780949 203.11219051 324.88780949 202 326 C201.80629691 327.57142108 201.67549113 329.15065149 201.5703125 330.73046875 C201.49893066 331.74415527 201.42754883 332.7578418 201.35400391 333.80224609 C201.24064697 335.47794678 201.24064697 335.47794678 201.125 337.1875 C200.43310408 346.76729318 199.61015208 356.32099513 198.625 365.875 C197.40850229 377.78826057 196.24573808 389.70569879 195.14178467 401.62994385 C194.9676184 403.50361588 194.79163437 405.37712009 194.61358643 407.25042725 C193.54066544 418.55720621 192.72903373 429.83021365 192.34786987 441.18371582 C192.31573395 442.06217163 192.28359802 442.94062744 192.25048828 443.84570312 C192.21340256 445.01510437 192.21340256 445.01510437 192.17556763 446.20812988 C192 448 192 448 191 449 C190.79043229 450.40833311 190.64178125 451.82582354 190.51928711 453.24438477 C190.43927963 454.14524307 190.35927216 455.04610138 190.27684021 455.97425842 C190.19450638 456.95341721 190.11217255 457.93257599 190.02734375 458.94140625 C189.93997452 459.93881332 189.85260529 460.9362204 189.7625885 461.96385193 C189.48333277 465.16305031 189.21035434 468.36274991 188.9375 471.5625 C188.74976084 473.72594724 188.5616152 475.88935925 188.37304688 478.05273438 C187.91063975 483.3680891 187.45339109 488.68386905 187 494 C180.7049155 495.73480025 174.40063503 497.42171306 168.07495117 499.04125977 C156.8604945 501.91846416 145.74545285 505.07171094 134.640625 508.34375 C115.97661944 513.84128492 97.1534794 518.92812176 78.20703125 523.359375 C75.9830392 523.92816587 75.9830392 523.92816587 74.015625 525.0234375 C70.92493687 526.52086392 67.71616031 526.76493373 64.33984375 527.2421875 C61.38526368 527.91258345 58.7909274 528.78431969 55.96484375 529.8515625 C49.62911864 532.21668574 43.18257491 533.87175861 36.625 535.5 C28.7791261 537.46146848 21.03031724 539.53796119 13.34130859 542.05273438 C8.94189714 543.29997363 4.49140131 544.15402523 0 545 C-0.00808685 544.10241974 -0.01617371 543.20483948 -0.02450562 542.28005981 C-0.10235018 533.83349055 -0.18960979 525.38708289 -0.28752708 516.94072151 C-0.33753668 512.59804624 -0.38386609 508.25539586 -0.421875 503.91259766 C-0.45866919 499.723891 -0.5050127 495.5353902 -0.55806351 491.34685898 C-0.57663878 489.7464648 -0.59173509 488.14602643 -0.60334396 486.54556656 C-0.62015324 484.30897046 -0.64917413 482.07284909 -0.68115234 479.83642578 C-0.70113785 477.92447922 -0.70113785 477.92447922 -0.7215271 475.97390747 C-0.69193792 472.88266021 -0.69193792 472.88266021 -3 471 C-1.92363281 470.75765625 -0.84726562 470.5153125 0.26171875 470.265625 C8.03347053 468.49142412 15.65654779 466.55311956 23.25390625 464.125 C28.15608981 462.6528114 33.10433981 461.39354644 38.0625 460.125 C45.57446197 458.19976543 53.02331337 456.14812566 60.4375 453.875 C66.94406022 451.88137311 73.45571661 450.07006956 80.06860352 448.46606445 C87.33794102 446.69681253 94.53007369 444.66383882 101.73095703 442.63671875 C103.95336169 442.01308723 106.1774236 441.39584144 108.40234375 440.78125 C114.85317322 438.99880277 121.3000476 437.20659478 127.73046875 435.3515625 C128.69041748 435.07497803 129.65036621 434.79839355 130.6394043 434.51342773 C132.51786552 433.97106755 134.39565712 433.42638168 136.27270508 432.87915039 C137.1211499 432.63414795 137.96959473 432.38914551 138.84375 432.13671875 C139.59849609 431.91717529 140.35324219 431.69763184 141.13085938 431.47143555 C143 431 143 431 145 431 C145.02187378 430.14510986 145.02187378 430.14510986 145.04418945 429.27294922 C145.42289236 415.74402197 146.35617233 402.35267896 147.77490234 388.89379883 C148.78483103 379.2910301 149.64274767 369.68503162 150.4375 360.0625 C151.55765859 346.54620912 152.90050435 333.06172712 154.3253479 319.57443237 C155.56581441 307.78730546 156.57705413 296.01452769 157.34960938 284.18603516 C157.75505761 278.07417694 158.27951636 272.01244737 159.0625 265.9375 C159.89810395 259.38221937 160.31191832 252.88104073 160.60791016 246.28149414 C160.91520372 239.80544574 161.50992791 233.38605254 162.19702148 226.94042969 C163.06611939 218.68520555 163.70066349 210.41486858 164.30249023 202.13623047 C164.37927002 201.12061035 164.4560498 200.10499023 164.53515625 199.05859375 C164.600979 198.15423584 164.66680176 197.24987793 164.73461914 196.31811523 C165 194 165 194 166 191 C166.28016841 188.12699033 166.51721569 185.26532762 166.71875 182.38671875 C166.78155151 181.53954788 166.84435303 180.69237701 166.90905762 179.8195343 C167.10968093 177.10910894 167.3052857 174.39835582 167.5 171.6875 C167.69508437 168.98738777 167.89133417 166.28738246 168.09094238 163.58760071 C168.21501262 161.90826543 168.33647709 160.22873498 168.45495605 158.54899597 C168.76721776 154.30911253 169.27689246 150.19321787 170 146 C170.16947734 144.09329702 170.31177382 142.18402254 170.4296875 140.2734375 C170.50131104 139.17273926 170.57293457 138.07204102 170.64672852 136.93798828 C170.7597229 135.17430908 170.7597229 135.17430908 170.875 133.375 C171.63043051 122.13732498 172.66623069 110.95682221 173.94677734 99.76708984 C174.7278345 92.87996103 175.31366496 86.0084271 175.73413086 79.08935547 C176 76 176 76 177 71 C60.18 71 -56.64 71 -177 71 C-177 70.67 -177 70.34 -177 70 C-118.59 70 -60.18 70 0 70 C0 46.9 0 23.8 0 0 Z " fill="#2A65F0" transform="translate(289,208)"/>
<path d="M0 0 C23.43 0 46.86 0 71 0 C72.27631811 10.84870395 73.43688705 21.55741898 74.125 32.4375 C74.21136719 33.70787109 74.29773438 34.97824219 74.38671875 36.28710938 C74.83796236 43.20259673 75.12723473 50.06974628 75 57 C75.66902344 57.10199707 76.33804688 57.20399414 77.02734375 57.30908203 C83.55768015 58.33440835 89.79394934 60.0529614 96.10522461 61.97143555 C101.69864879 63.65624604 107.32481685 65.11764659 113 66.5 C120.55041703 68.34364759 127.9931242 70.40746052 135.421875 72.69140625 C142.2330377 74.63828296 149.12756461 76.28189115 156 78 C155.67 101.76 155.34 125.52 155 150 C155.99 150.33 156.98 150.66 158 151 C153.48382401 151.07654536 149.40914783 151.10228696 145 150 C145 149.34 145 148.68 145 148 C143.7625 147.9175 142.525 147.835 141.25 147.75 C136.25604444 147.20734971 131.80021493 145.73450827 127.08984375 144.03515625 C124.12099488 143.04053558 121.14167238 142.25737939 118.09985352 141.52026367 C114.54341451 140.63911363 111.02540177 139.62184312 107.5 138.625 C100.15270403 136.55941194 92.77734321 134.67245225 85.35546875 132.89453125 C82 132 82 132 79.62158203 131.0246582 C76.98849623 129.99550369 74.45687957 129.32375102 71.69921875 128.7109375 C70.23452148 128.38222656 70.23452148 128.38222656 68.74023438 128.046875 C67.73283203 127.82515625 66.72542969 127.6034375 65.6875 127.375 C64.66076172 127.14554688 63.63402344 126.91609375 62.57617188 126.6796875 C60.05158679 126.1160592 57.52620953 125.55629378 55 125 C55 124.34 55 123.68 55 123 C54.11957031 122.86722656 53.23914063 122.73445312 52.33203125 122.59765625 C51.17058594 122.42105469 50.00914062 122.24445313 48.8125 122.0625 C47.66394531 121.88847656 46.51539063 121.71445312 45.33203125 121.53515625 C42.53674788 121.08620687 39.77066414 120.57917838 37 120 C37 119.34 37 118.68 37 118 C36.11957031 117.86722656 35.23914063 117.73445312 34.33203125 117.59765625 C33.17058594 117.42105469 32.00914062 117.24445313 30.8125 117.0625 C29.66394531 116.88847656 28.51539063 116.71445312 27.33203125 116.53515625 C24.53674788 116.08620687 21.77066414 115.57917838 19 115 C19 114.34 19 113.68 19 113 C18.36191406 112.93941406 17.72382813 112.87882813 17.06640625 112.81640625 C16.24011719 112.73261719 15.41382813 112.64882813 14.5625 112.5625 C13.32693359 112.44068359 13.32693359 112.44068359 12.06640625 112.31640625 C10 112 10 112 9 111 C8.72199936 108.70473699 8.50665579 106.4018528 8.31640625 104.09765625 C8.22678116 103.04085663 8.22678116 103.04085663 8.13534546 101.96270752 C8.00730147 100.44979242 7.88119253 98.93671257 7.75680542 97.42349243 C7.43350096 93.49504106 7.09580312 89.56783608 6.7578125 85.640625 C6.69208542 84.87418167 6.62635834 84.10773834 6.55863953 83.31806946 C6.09601872 77.97314493 5.56708164 72.64056683 4.9375 67.3125 C3.72019869 56.89614635 2.8573244 46.45126971 2 36 C1.90686523 34.87770996 1.81373047 33.75541992 1.71777344 32.59912109 C1.43162635 29.12898144 1.15219404 25.65836541 0.875 22.1875 C0.78734375 21.12080078 0.6996875 20.05410156 0.609375 18.95507812 C0.52945313 17.93220703 0.44953125 16.90933594 0.3671875 15.85546875 C0.29612793 14.96496826 0.22506836 14.07446777 0.15185547 13.15698242 C-0.05887163 8.77609472 0 4.38595291 0 0 Z " fill="#E9E9EA" transform="translate(134,528)"/>
<path d="M0 0 C116.82 0 233.64 0 354 0 C354 1.65 354 3.3 354 5 C353.67 3.68 353.34 2.36 353 1 C295.25 1 237.5 1 178 1 C178 23.77 178 46.54 178 70 C121.24 70 64.48 70 6 70 C0 10 0 10 0 0 Z " fill="#EAEAEB" transform="translate(112,279)"/>
<path d="M0 0 C84.81 0 169.62 0 257 0 C257 0.33 257 0.66 257 1 C226.64 1 196.28 1 165 1 C165 23.77 165 46.54 165 70 C193.38 70 221.76 70 251 70 C251 78.8275445 250.89534571 87.2698868 250.0625 96 C249.93198242 97.47533203 249.93198242 97.47533203 249.79882812 98.98046875 C249.36959603 103.69248331 248.87282655 108.34492506 248 113 C247.67 113 247.34 113 247 113 C247.11468861 109.74955694 247.24395881 106.49982155 247.375 103.25 C247.4059375 102.36828125 247.436875 101.4865625 247.46875 100.578125 C247.74774491 93.8822472 248.34311066 87.2414602 249.02587891 80.57714844 C249.1194014 79.65376678 249.21292389 78.73038513 249.3092804 77.77902222 C249.53833001 75.51922442 249.76859894 73.25955801 250 71 C248.73825738 71.00092179 247.47651476 71.00184359 246.17653751 71.00279331 C216.25649601 71.02442948 186.33645651 71.04092964 156.41640911 71.05106533 C152.73748562 71.05231611 149.05856214 71.05361042 145.37963867 71.05493164 C144.64720036 71.05519395 143.91476205 71.05545626 143.16012865 71.05572652 C131.28502582 71.06008333 119.4099278 71.06797094 107.53482784 71.0771528 C95.35893969 71.08648903 83.18305409 71.09205554 71.00716251 71.09408849 C63.48794689 71.09546379 55.96874489 71.0998147 48.44953346 71.10791647 C42.69350728 71.11380426 36.93748992 71.11445904 31.18146133 71.11310768 C28.81303384 71.1133842 26.44460585 71.11539185 24.07618141 71.11920547 C20.85790213 71.12413603 17.63968246 71.12300066 14.42140198 71.12025452 C12.99584774 71.12462378 12.99584774 71.12462378 11.54149443 71.12908131 C5.11412121 71.11412121 5.11412121 71.11412121 4 70 C3.79174687 67.55690538 3.64404662 65.13565418 3.53515625 62.6875 C3.49755692 61.93470261 3.45995758 61.18190521 3.42121887 60.40629578 C3.3402211 58.78319268 3.26114898 57.15999261 3.18377686 55.53671265 C2.54815634 42.24162357 1.79408914 28.97588702 0.60961914 15.71679688 C0.5296167 14.80349609 0.44961426 13.89019531 0.3671875 12.94921875 C0.29612793 12.17924561 0.22506836 11.40927246 0.15185547 10.6159668 C-0.05323734 7.08289694 0 3.53901762 0 0 Z " fill="#E7E8EB" transform="translate(125,422)"/>
<path d="M0 0 C29.04 0 58.08 0 88 0 C88 10.89 88 21.78 88 33 C71.5 33 55 33 38 33 C38 34.32 38 35.64 38 37 C54.5 37 71 37 88 37 C88 61.42 88 85.84 88 111 C58.96 111 29.92 111 0 111 C0 99.45 0 87.9 0 76 C16.5 76 33 76 50 76 C50 74.68 50 73.36 50 72 C33.5 72 17 72 0 72 C0 48.24 0 24.48 0 0 Z " fill="#FEFEFE" transform="translate(344,3)"/>
<path d="M0 0 C29.04 0 58.08 0 88 0 C88 10.89 88 21.78 88 33 C71.5 33 55 33 38 33 C38 34.32 38 35.64 38 37 C54.5 37 71 37 88 37 C88 61.42 88 85.84 88 111 C58.96 111 29.92 111 0 111 C0 99.45 0 87.9 0 76 C16.5 76 33 76 50 76 C50 74.68 50 73.36 50 72 C33.5 72 17 72 0 72 C0 48.24 0 24.48 0 0 Z " fill="#FEFEFE" transform="translate(241,3)"/>
<path d="M0 0 C80.52 0 161.04 0 244 0 C244 10.12262266 244 10.12262266 243.64868164 13.85107422 C243.57182632 14.69000214 243.49497101 15.52893005 243.41578674 16.39328003 C243.28924965 17.71067673 243.28924965 17.71067673 243.16015625 19.0546875 C243.07374374 19.9957132 242.98733124 20.93673889 242.89830017 21.90628052 C242.62356695 24.89622703 242.34365957 27.88565141 242.0625 30.875 C240.94278137 42.79376093 239.89156512 54.68680877 239.3253479 66.64616394 C239.05181447 72.35163665 238.59849369 78.01274676 237.9375 83.6875 C237.80118164 84.91823242 237.80118164 84.91823242 237.66210938 86.17382812 C237.44626457 88.11643138 237.22395692 90.05831524 237 92 C235.97003906 92.23074219 234.94007813 92.46148438 233.87890625 92.69921875 C225.95461524 94.50284688 218.15061383 96.49119428 210.37231445 98.85986328 C201.42568768 101.53873437 192.35665106 103.77614337 183.30224609 106.05761719 C176.02259802 107.90638738 168.85761533 109.91869655 161.72875977 112.2878418 C158.06032162 113.24523949 155.61738908 113.00950393 152 112 C155.75 110.875 155.75 110.875 158 112 C158 75.37 158 38.74 158 1 C105.86 1 53.72 1 0 1 C0 0.67 0 0.34 0 0 Z " fill="#2A65F0" transform="translate(131,493)"/>
<path d="M0 0 C29.04 0 58.08 0 88 0 C88 12.54 88 25.08 88 38 C71.5 38 55 38 38 38 C38 49.22 38 60.44 38 72 C54.5 72 71 72 88 72 C88 84.54 88 97.08 88 110 C58.96 110 29.92 110 0 110 C0 73.7 0 37.4 0 0 Z " fill="#FEFEFE" transform="translate(138,3)"/>
<path d="M0 0 C89.1 0 178.2 0 270 0 C268.84671258 19.60588617 268.84671258 19.60588617 268.0625 29.1328125 C267.97750244 30.17976288 267.89250488 31.22671326 267.80493164 32.3053894 C267.62773971 34.48133972 267.44959898 36.65721299 267.27050781 38.83300781 C266.99761238 42.15405657 266.72910958 45.47544186 266.4609375 48.796875 C266.28671924 50.92970883 266.1122493 53.06252212 265.9375 55.1953125 C265.85830322 56.17766876 265.77910645 57.16002502 265.69750977 58.17214966 C265.62072998 59.09776703 265.5439502 60.0233844 265.46484375 60.97705078 C265.399021 61.78071075 265.33319824 62.58437073 265.26538086 63.41238403 C264.93650122 66.61914966 264.45588392 69.80881253 264 73 C179.19 73 94.38 73 7 73 C7.66 80.26 8.32 87.52 9 95 C9 97.64 9 100.28 9 103 C6.6910822 99.33013471 6.56677646 95.65258679 6.375 91.4375 C6.33632812 90.78458984 6.29765625 90.13167969 6.2578125 89.45898438 C5.9426114 83.6221355 6 77.8650006 6 72 C60.45 72 114.9 72 171 72 C170.67 48.9 170.34 25.8 170 2 C113.9 1.67 57.8 1.34 0 1 C0 0.67 0 0.34 0 0 Z " fill="#2E68F0" transform="translate(118,349)"/>
</svg>
