<?xml version="1.0" encoding="UTF-8"?>
<svg version="1.1" xmlns="http://www.w3.org/2000/svg" width="460" height="457">
<path d="M0 0 C1.24224335 0.00323273 1.24224335 0.00323273 2.50958252 0.00653076 C37.33159694 0.15130518 71.67796745 7.61039283 102.48046875 24.28710938 C104.40517451 25.32883156 106.34263514 26.34381831 108.28125 27.359375 C134.32289311 41.25232016 158.52990784 61.77853618 176.375 85.3125 C177.09139648 86.24690918 177.09139648 86.24690918 177.82226562 87.20019531 C209.32629306 128.53206692 225.93389863 178.08828922 225.6875 230 C225.68534485 230.82599701 225.6831897 231.65199402 225.68096924 232.50302124 C225.4137841 296.64366999 198.72568025 354.37059361 153.72753906 399.33300781 C146.13855066 406.74795061 138.08285448 413.26331559 129.375 419.3125 C128.77913086 419.7264502 128.18326172 420.14040039 127.56933594 420.56689453 C123.58864481 423.29282696 119.52052085 425.84554689 115.375 428.3125 C114.69888672 428.7156543 114.02277344 429.11880859 113.32617188 429.53417969 C102.66936439 435.81908746 91.76081979 441.01742969 80.25537109 445.56030273 C78.72457134 446.17266239 77.21248179 446.83163332 75.70703125 447.50390625 C71.06226872 449.1144018 66.20343047 448.98033271 61.375 448.3125 C57.89257609 445.78603559 56.72273178 444.35569535 55.375 440.3125 C55.27150075 437.94919078 55.2290937 435.5830743 55.21728516 433.2175293 C55.21220444 432.49830795 55.20712372 431.77908661 55.20188904 431.03807068 C55.19118837 429.47483728 55.182567 427.9115886 55.17576981 426.34833336 C55.16394305 423.86160306 55.14447431 421.3750435 55.12265015 418.88838196 C55.06120625 411.81716751 55.00728218 404.7459661 54.97363281 397.67456055 C54.95248479 393.34614618 54.91701228 389.01803658 54.87287521 384.68979836 C54.85885896 383.05187423 54.85002586 381.4138961 54.84682083 379.77591515 C54.81898839 366.89857719 54.09849143 354.37218205 47.9375 342.75 C47.36128906 341.63496094 46.78507812 340.51992188 46.19140625 339.37109375 C44.45680786 336.45025387 42.56826964 333.90104021 40.375 331.3125 C42.17591842 329.51158158 44.73064259 329.79114676 47.15112305 329.46411133 C68.12880262 326.58855651 94.56850476 320.37766494 110.04296875 304.61328125 C111.375 303.3125 111.375 303.3125 113.375 303.3125 C114.035 301.9925 114.695 300.6725 115.375 299.3125 C116.035 299.3125 116.695 299.3125 117.375 299.3125 C117.63925781 298.74273437 117.90351563 298.17296875 118.17578125 297.5859375 C119.44875454 295.17267869 120.93192501 293.12403763 122.5625 290.9375 C140.39714166 265.5388939 144.71259784 231.84944822 140.87109375 201.578125 C138.3195752 187.5229028 132.39785222 171.21513982 122.01953125 161 C120.17878428 158.9061467 119.40281458 157.90409715 119.27075195 155.09521484 C119.68896551 152.5599736 120.29609507 150.15847506 121 147.6875 C121.43072636 145.90315511 121.85263578 144.11665842 122.265625 142.328125 C122.46736328 141.46638672 122.66910156 140.60464844 122.87695312 139.71679688 C125.7788677 125.70794653 121.89866207 110.5321338 117.375 97.3125 C97.2848792 93.70334513 75.33513954 107.45332536 59.375 118.3125 C59.045 118.6425 58.715 118.9725 58.375 119.3125 C50.55966668 119.10536578 42.86116834 117.32888291 35.23046875 115.7734375 C23.8628754 113.51675971 12.68341411 113.07473281 1.125 113.0625 C0.00165756 113.06049088 0.00165756 113.06049088 -1.14437866 113.05844116 C-17.41134829 113.06472796 -33.21110525 114.54092105 -48.96875 118.76171875 C-53.49851881 119.70097964 -56.40238879 119.9919108 -60.53515625 117.6953125 C-61.57542969 116.95023437 -62.61570313 116.20515625 -63.6875 115.4375 C-69.64310891 111.36965407 -75.80872203 108.04898427 -82.3125 104.9375 C-83.16658447 104.52129395 -84.02066895 104.10508789 -84.90063477 103.67626953 C-95.43477022 98.71748597 -105.99245257 96.3125 -117.625 96.3125 C-118.08599101 98.56864426 -118.53804161 100.82605784 -118.98046875 103.0859375 C-119.44018946 105.38732725 -119.92470261 107.6838222 -120.42578125 109.9765625 C-123.34689921 123.72148114 -123.4984134 136.35805294 -120.28125 150.10546875 C-118.85358307 157.08234105 -118.85358307 157.08234105 -120.9453125 160.41796875 C-121.54085937 161.10503906 -122.13640625 161.79210937 -122.75 162.5 C-136.54791451 179.38575425 -141.24654183 199.10841733 -141 220.5625 C-140.99302094 221.6480014 -140.99302094 221.6480014 -140.98590088 222.75543213 C-140.90262951 233.81893327 -140.45772287 244.5698656 -137.625 255.3125 C-137.42100586 256.09222168 -137.21701172 256.87194336 -137.00683594 257.67529297 C-132.7679029 273.3260261 -126.51385124 287.75678542 -114.6875 299.25 C-114.006875 299.930625 -113.32625 300.61125 -112.625 301.3125 C-112.625 301.9725 -112.625 302.6325 -112.625 303.3125 C-112.04105469 303.58449219 -111.45710938 303.85648437 -110.85546875 304.13671875 C-108.65827378 305.29495988 -106.87878476 306.58255362 -104.9375 308.125 C-87.67105383 321.19320606 -66.16052577 327.22824219 -44.9609375 329.953125 C-42.625 330.3125 -42.625 330.3125 -40.625 331.3125 C-41.99319212 334.23130986 -43.60050258 336.71422374 -45.5 339.3125 C-49.35105202 345.00454275 -51.98216807 351.65405564 -52.92578125 358.4921875 C-53.1875 360.3125 -53.1875 360.3125 -54.625 363.3125 C-65.91017104 369.32388196 -80.51911004 370.00236374 -92.9296875 367.69921875 C-106.82380563 363.12825525 -114.71535092 352.99979846 -122.64453125 341.34375 C-129.18952937 331.94580398 -137.94604056 323.54935411 -149.625 321.3125 C-151.49824188 321.22125326 -153.37454391 321.18244486 -155.25 321.1875 C-156.21164063 321.18492187 -157.17328125 321.18234375 -158.1640625 321.1796875 C-160.62974769 321.14888917 -160.62974769 321.14888917 -162.625 322.3125 C-162.3200116 325.57135751 -161.94263825 326.99668726 -159.5859375 329.33984375 C-158.73257813 329.97019531 -157.87921875 330.60054688 -157 331.25 C-156.09121094 331.94609375 -155.18242187 332.6421875 -154.24609375 333.359375 C-152.7425693 334.47973599 -151.23638024 335.59658344 -149.72265625 336.703125 C-139.74582217 344.49679304 -134.73865854 355.8925412 -129.86425781 367.19628906 C-127.19171881 373.30260736 -124.3530927 378.52851968 -119.625 383.3125 C-119.13128906 383.84359375 -118.63757813 384.3746875 -118.12890625 384.921875 C-107.40990265 395.29337973 -91.51208545 399.63833155 -76.9440918 399.47314453 C-72.53100302 399.25955039 -68.16056052 398.78061549 -63.76953125 398.30078125 C-62.88898071 398.20623657 -62.00843018 398.11169189 -61.10119629 398.01428223 C-58.94226399 397.78220982 -56.78360377 397.54760865 -54.625 397.3125 C-54.55067346 403.32647009 -54.49631412 409.34017096 -54.46020508 415.35449219 C-54.44514712 417.39913594 -54.42469643 419.44374755 -54.39868164 421.48828125 C-54.36216689 424.43237252 -54.34524349 427.37603557 -54.33203125 430.3203125 C-54.31654739 431.2299173 -54.30106354 432.13952209 -54.28511047 433.07669067 C-54.28375216 438.23461757 -54.66898103 441.88430836 -57.625 446.3125 C-62.4987989 449.56169927 -66.92956091 449.17508725 -72.625 448.3125 C-79.20466624 446.28867312 -85.42181544 443.26413926 -91.625 440.3125 C-92.34300781 439.97621582 -93.06101563 439.63993164 -93.80078125 439.29345703 C-108.39628695 432.41831416 -121.96080055 424.33832457 -134.625 414.3125 C-135.49125 413.63960938 -136.3575 412.96671875 -137.25 412.2734375 C-181.26921158 377.29388544 -209.67382505 328.33366485 -220.625 273.3125 C-220.78871094 272.52987793 -220.95242187 271.74725586 -221.12109375 270.94091797 C-226.48205357 244.27457341 -225.97094351 212.92645892 -220.625 186.3125 C-220.45871094 185.46139648 -220.29242188 184.61029297 -220.12109375 183.73339844 C-211.75942449 142.25022816 -192.58729227 104.93852635 -164.625 73.3125 C-163.8309375 72.39597656 -163.036875 71.47945313 -162.21875 70.53515625 C-158.361263 66.14264109 -154.43823992 62.03792385 -149.9609375 58.27734375 C-148.12482218 56.73291899 -146.32790743 55.16424626 -144.5390625 53.56640625 C-136.37141666 46.32450506 -127.89481443 40.06847755 -118.625 34.3125 C-117.96129395 33.89758301 -117.29758789 33.48266602 -116.61376953 33.05517578 C-94.80809943 19.52869166 -71.77971739 9.99756301 -46.6875 4.4375 C-45.82608398 4.24639648 -44.96466797 4.05529297 -44.07714844 3.85839844 C-29.45207673 0.83687069 -14.89383708 -0.07032313 0 0 Z " fill="#FEFEFE" transform="translate(228.625,2.6875)"/>
</svg>
