<?xml version="1.0" encoding="UTF-8"?>
<svg version="1.1" xmlns="http://www.w3.org/2000/svg" width="580" height="807">
<path d="M0 0 C187.44 0 374.88 0 568 0 C566.85134867 20.67572396 566.85134867 20.67572396 566.10167027 28.95500183 C566.01669693 29.9206611 565.93172359 30.88632037 565.84417531 31.88124204 C565.56391531 35.05804544 565.27948893 38.23446049 564.99501038 41.41088867 C564.78908453 43.73486451 564.58341501 46.05886308 564.37797731 48.38288212 C563.81671406 54.72347531 563.25174245 61.06373325 562.68610299 67.40393734 C562.13780346 73.55295201 561.59289173 79.70226743 561.04754283 85.85154434 C559.58926971 102.29286789 558.12496799 118.73365281 556.65995877 135.17437726 C555.9668946 142.9526165 555.27459041 150.73092334 554.58237552 158.50923821 C552.21185832 185.14621071 549.84007986 211.78307046 547.46392155 238.41954041 C547.31509083 240.08795151 547.16626021 241.75636263 547.01742968 243.42477375 C546.86824959 245.09709109 546.7190694 246.76940841 546.56988913 248.44172573 C546.27063005 251.79643673 545.97137372 255.15114797 545.67211914 258.50585938 C545.59792141 259.33761781 545.52372368 260.16937625 545.44727753 261.02633949 C543.03643547 288.05251014 540.63301395 315.07933359 538.23399394 342.10655604 C535.69591252 370.70012891 533.1513135 399.29311425 530.59915441 427.88543415 C530.31938427 431.02002565 530.03964061 434.1546195 529.75991631 437.28921509 C529.65660204 438.44690371 529.65660204 438.44690371 529.55120062 439.62797999 C528.44140813 452.06549079 527.33756928 464.50352314 526.23583568 476.94175009 C525.13026804 489.42154212 524.01805481 501.90072788 522.899 514.37931788 C522.29256471 521.14367507 521.68906486 527.90826342 521.0937233 534.67360687 C520.5493421 540.85658283 519.99675558 547.03876643 519.43740051 553.22040522 C519.2357102 555.46590457 519.03712479 557.71168522 518.84182883 559.95774972 C518.57754446 562.99213124 518.30233616 566.02532081 518.02417088 569.05845642 C517.94949348 569.94649059 517.87481608 570.83452475 517.79787573 571.74946904 C517.22829509 577.77170491 517.22829509 577.77170491 515 580 C512.52751772 580.8176089 510.08375693 581.54082805 507.57226562 582.21704102 C506.79779807 582.43129825 506.02333052 582.64555548 505.22539425 582.86630535 C502.6207154 583.58518871 500.0135129 584.29445698 497.40625 585.00390625 C495.54785094 585.51491101 493.68962414 586.02654254 491.83155823 586.53875732 C487.8276386 587.6412073 483.82261369 588.73951314 479.81668091 589.83462524 C473.45856876 591.57285016 467.10294772 593.320054 460.74780273 595.0690918 C454.15238655 596.88392916 447.55687286 598.69840242 440.96055603 600.50996399 C421.18730846 605.94108635 401.42805946 611.42185491 381.67321777 616.91949844 C375.01997394 618.77029675 368.36427363 620.61206724 361.70751953 622.45019531 C358.06914206 623.45568024 354.43096552 624.46188854 350.79296875 625.46875 C349.48373318 625.83105335 349.48373318 625.83105335 348.1480484 626.20067596 C337.22812986 629.22621193 326.34468771 632.34768787 315.48828125 635.59375 C312.25319856 636.54637474 309.01736244 637.49638824 305.78121948 638.44540405 C303.02129169 639.2688526 300.27719353 640.133719 297.53149414 641.00317383 C295.91486028 641.47953669 294.29763508 641.95389965 292.6796875 642.42578125 C291.69075249 642.76403931 291.69075249 642.76403931 290.68183899 643.10913086 C283.66758677 645.05243601 276.95391171 642.56684249 270.18911362 640.6265583 C268.04010214 640.01147786 265.88593557 639.4206464 263.72805786 638.83750916 C259.11692754 637.58781022 254.51549384 636.30440214 249.9140625 635.01953125 C248.16525381 634.53291454 246.41639151 634.04649045 244.66748047 633.5602417 C240.93384672 632.52176482 237.20057348 631.48200574 233.46759033 630.44119263 C227.53153502 628.78613808 221.59468788 627.13393675 215.65771484 625.48217773 C208.38889387 623.45969366 201.12025559 621.43655551 193.85184669 619.41259098 C180.34013066 615.65022648 166.82675519 611.89385797 153.3125 608.140625 C151.81016375 607.723387 151.81016375 607.723387 150.27747726 607.29771996 C145.31381228 605.91921246 140.35012027 604.54080234 135.38641357 603.16244507 C130.69439156 601.85950884 126.00242931 600.55635759 121.31051445 599.25303555 C119.51363275 598.75389752 117.71674382 598.25478549 115.91984749 597.75570011 C111.59919189 596.55560003 107.27866013 595.35505802 102.95840454 594.15351868 C95.33207037 592.03299245 87.70470775 589.91648652 80.07266426 587.81658649 C76.67524082 586.88160416 73.27846101 585.94429609 69.88172531 585.00681877 C68.27979063 584.56545402 66.6775227 584.12529686 65.07490921 583.68640327 C62.88553847 583.08677898 60.69730255 582.48317445 58.50927734 581.87866211 C57.27124359 581.53854599 56.03320984 581.19842987 54.75765991 580.8480072 C52 580 52 580 51 579 C50.74029985 577.10131736 50.54491193 575.19382904 50.37376404 573.28512573 C50.25884015 572.02801725 50.14391626 570.77090878 50.02550983 569.4757061 C49.90030927 568.05526289 49.77519136 566.63481239 49.65014648 565.21435547 C49.51443335 563.71022718 49.37832701 562.20613433 49.2418623 560.70207405 C48.86137336 556.49516626 48.48665929 552.28775987 48.11276865 548.08026123 C47.69841046 543.42862257 47.27881664 538.77745559 46.85995483 534.1262207 C46.01417819 524.72438551 45.17350785 515.3220997 44.33442402 505.9196651 C43.63728638 498.10891515 42.93833408 490.29832952 42.23812866 482.487854 C42.13732803 481.36343387 42.0365274 480.23901374 41.9326722 479.08052027 C41.72592363 476.77430692 41.51917312 474.46809374 41.31242073 472.16188073 C39.25972784 449.262074 37.21317799 426.36172049 35.16824989 403.46121946 C32.8588994 377.59990509 30.54476152 351.7390213 28.22864808 325.87831178 C24.85499469 288.20945727 21.48482621 250.54029267 18.11892414 212.87074471 C17.8433321 209.78650039 17.56773838 206.70225622 17.29214222 203.61801226 C17.10853014 201.56317661 16.92492067 199.50834073 16.74131381 197.45350461 C15.36077587 182.00367125 13.9783042 166.5540117 12.59494019 151.10443115 C11.00147246 133.30816321 9.41097105 115.51163274 7.82418013 97.71476817 C6.92044052 87.57967312 6.0144586 77.44478416 5.10539184 67.31016552 C4.49172324 60.46622311 3.88097474 53.62202413 3.27257456 46.77761138 C2.92378641 42.85472536 2.57372798 38.93196393 2.22017658 35.00950408 C1.89741316 31.42829784 1.57834569 27.84678194 1.26218154 24.26498723 C1.09376944 22.36783916 0.92145004 20.47103918 0.74896705 18.5742569 C0.64921329 17.43589575 0.54945953 16.2975346 0.44668293 15.12467766 C0.35977391 14.15191568 0.27286488 13.17915371 0.18332225 12.1769141 C-0.05053619 8.12422451 0 4.05943132 0 0 Z " fill="#E44D26" transform="translate(6,160)"/>
<path d="M0 0 C116.82 0 233.64 0 354 0 C354 10.12645971 354 10.12645971 353.55688477 15.06713867 C353.4600087 16.16825485 353.36313263 17.26937103 353.26332092 18.40385437 C353.15708908 19.56351212 353.05085724 20.72316986 352.94140625 21.91796875 C352.8327977 23.1339827 352.72418915 24.34999664 352.61228943 25.6028595 C352.38299639 28.16045982 352.15176581 30.7178871 351.91870117 33.27514648 C351.56273064 37.18496671 351.21350636 41.09534665 350.86523438 45.00585938 C350.6410226 47.49743164 350.41642642 49.98896936 350.19140625 52.48046875 C350.08719864 53.64619919 349.98299103 54.81192963 349.87562561 56.01298523 C349.72558327 57.65047478 349.72558327 57.65047478 349.57250977 59.32104492 C349.48590591 60.27540939 349.39930206 61.22977386 349.31007385 62.21305847 C348.98261531 65.1562535 348.48684384 68.07893698 348 71 C258.57 71 169.14 71 77 71 C77.99 79.25 78.98 87.5 80 96 C80.53112088 101.55600526 81.05927414 107.10114209 81.50805664 112.66259766 C81.69180195 114.92803985 81.88562309 117.19248552 82.08007812 119.45703125 C82.20371041 120.94786824 82.32677963 122.43875205 82.44921875 123.9296875 C82.55580811 125.22116699 82.66239746 126.51264648 82.7722168 127.84326172 C83.04868899 132.88850886 83 137.9471834 83 143 C168.14 143 253.28 143 341 143 C341 153.12514103 341 153.12514103 340.69869995 156.55517578 C340.63165674 157.34012767 340.56461353 158.12507956 340.49553871 158.93381786 C340.42079512 159.76261109 340.34605152 160.59140432 340.26904297 161.4453125 C340.15164796 162.79952159 340.15164796 162.79952159 340.03188133 164.18108845 C339.77241469 167.16273502 339.5073617 170.14385605 339.2421875 173.125 C339.05639589 175.24494291 338.87091685 177.36491323 338.68572998 179.48490906 C338.18962307 185.15178176 337.68846067 190.8181967 337.18616486 196.48452377 C336.77049944 201.18062567 336.3578265 205.8769887 335.94508171 210.57334805 C333.33997972 240.20550187 330.67038136 269.83117026 327.89916992 299.44824219 C326.44730767 314.98456266 325.06348579 330.52403689 323.84814453 346.08081055 C323.74743652 347.34836182 323.64672852 348.61591309 323.54296875 349.921875 C323.46071045 350.99018555 323.37845215 352.05849609 323.29370117 353.15917969 C323.0180219 355.82568342 322.57520176 358.38341956 322 361 C311.73117361 364.2475617 301.38450957 367.15025643 291 370 C288.1243772 370.78942462 285.24930022 371.58077269 282.375 372.375 C281.64982178 372.57528809 280.92464355 372.77557617 280.17749023 372.98193359 C273.72366608 374.77593437 267.30032952 376.66942111 260.875 378.5625 C252.94669302 380.8963605 245.01766679 383.03099962 236.984375 384.97265625 C232.27380046 386.15029989 227.64218898 387.58026314 223 389 C215.7161274 391.22674049 208.42657435 393.21328871 201.01953125 394.984375 C198.09136356 395.69980864 195.20953962 396.51846985 192.32421875 397.390625 C191.53096191 397.62644287 190.73770508 397.86226074 189.92041016 398.10522461 C188.40150562 398.56083306 186.88640719 399.02943262 185.37646484 399.51391602 C176.03062522 402.29057851 167.9376728 399.60726518 158.875 396.8125 C150.55844466 394.31216955 142.22660343 391.9622763 133.8125 389.8125 C126.98765806 388.06403833 120.24898266 386.19532781 113.53515625 384.0546875 C108.70238004 382.61286476 103.82249689 381.37649843 98.9375 380.125 C90.58033381 377.98283436 82.31543298 375.63967573 74.06811523 373.10986328 C69.07500132 371.58958978 64.07472687 370.21885724 59 369 C49.55318191 366.71572841 40.28757252 363.85478664 31 361 C30.94054199 360.15896729 30.88108398 359.31793457 30.81982422 358.45141602 C29.5454415 340.67929244 28.11223775 322.92513188 26.46484375 305.18359375 C26.36370396 304.09380313 26.36370396 304.09380313 26.26052094 302.98199654 C25.57676227 295.62364825 24.88623783 288.26596125 24.18637371 280.90912724 C23.92091709 278.1135194 23.65785509 275.31768895 23.39514351 272.52182198 C23.21194405 270.58323643 23.02508212 268.64499809 22.83811951 266.70677185 C22.72758743 265.53058792 22.61705536 264.35440399 22.50317383 263.14257812 C22.40563309 262.12103638 22.30809235 261.09949463 22.20759583 260.04699707 C21.97990336 256.70503073 22 253.34971385 22 250 C45.43 250 68.86 250 93 250 C96.46831497 278.90262471 96.46831497 278.90262471 97.1875 288.6875 C97.26935547 289.71681641 97.35121094 290.74613281 97.43554688 291.80664062 C97.80079316 296.54870371 98.10542261 301.23976373 98 306 C98.98355469 306.21914063 99.96710938 306.43828125 100.98046875 306.6640625 C109.92200565 308.69279617 118.73952742 311.01054095 127.54321289 313.57006836 C137.99307819 316.60023584 148.50307569 319.40745556 159.02050781 322.19287109 C161.01011002 322.73184396 162.99403977 323.2922013 164.97167969 323.87353516 C173.85534396 326.45867237 180.51508685 326.1531142 189.375 323.8125 C190.25349609 323.58691406 191.13199219 323.36132812 192.03710938 323.12890625 C198.25452828 321.51282625 204.41529828 319.73449407 210.56396484 317.8762207 C216.83226392 316.00011952 223.16331452 314.43518744 229.51904297 312.88598633 C236.00571378 311.28929655 242.40890058 309.47659515 248.796875 307.5234375 C253.80947581 306 253.80947581 306 256 306 C255.96914307 304.70868164 255.93828613 303.41736328 255.90649414 302.08691406 C255.91139969 294.22736028 256.75888953 286.42622966 257.49609375 278.609375 C257.65097591 276.93413341 257.80551605 275.25886017 257.95973206 273.58355713 C258.28225817 270.09026598 258.60782062 266.59727632 258.93579102 263.10449219 C259.35514745 258.63747893 259.76850589 254.16993638 260.17980862 249.70217514 C260.49801006 246.24985122 260.81853751 242.79774652 261.13984871 239.34571075 C261.29305951 237.69839544 261.44574939 236.05103158 261.59789848 234.40361786 C261.81100013 232.10187125 262.02702952 229.80041795 262.24389648 227.49902344 C262.36603012 226.19237732 262.48816376 224.8857312 262.61399841 223.53948975 C262.96235269 220.34521172 263.4717504 217.16949762 264 214 C182.82 214 101.64 214 18 214 C16.35 194.2 14.7 174.4 13 154 C12.00574793 142.99236257 11.01068071 131.98658873 9.97293091 120.98327637 C9.23255167 113.13299604 8.5067718 105.28135263 7.78125 97.4296875 C7.67070376 96.23393349 7.67070376 96.23393349 7.55792427 95.01402283 C5.89766171 77.03651649 4.31284053 59.0526561 2.76252365 41.06536102 C2.56400146 38.76738003 2.36412338 36.46952077 2.16384888 34.17169189 C1.85156464 30.58634126 1.5428563 27.00070083 1.23706055 23.41479111 C1.07217531 21.48924662 0.90418584 19.56396873 0.73608398 17.63870239 C0.58937256 15.9008699 0.58937256 15.9008699 0.43969727 14.12792969 C0.35422134 13.13138367 0.26874542 12.13483765 0.18067932 11.10809326 C-0.03423113 7.41114704 0 3.70318753 0 0 Z " fill="#FEFEFE" transform="translate(112,279)"/>
<path d="M0 0 C76.23 0 152.46 0 231 0 C229.84387239 21.96642463 229.84387239 21.96642463 228.93476868 31.8366394 C228.86839014 32.56215878 228.8020116 33.28767815 228.7336216 34.03518295 C228.63054727 35.160763 228.63054727 35.160763 228.52539062 36.30908203 C228.37877576 37.93942541 228.23247959 39.56979748 228.08647156 41.20019531 C227.77529529 44.6677077 227.4619785 48.13501703 227.14689636 51.60217667 C226.64711657 57.10243998 226.15263363 62.60317227 225.65881348 68.10397339 C224.69891751 78.78872092 223.73388359 89.47300117 222.76819611 100.15722656 C221.53864042 113.76310161 220.31123207 127.36916835 219.08891249 140.97569549 C218.59908944 146.42631852 218.10664037 151.87669555 217.6120224 157.32688546 C217.30331681 160.73421013 216.99680924 164.14173015 216.69083595 167.54930115 C216.55027955 169.10966627 216.40884244 170.66995239 216.2663784 172.2301445 C215.4761732 180.88961983 214.79894912 189.54200401 214.34045553 198.22604287 C213.99739842 204.62038936 213.30669808 210.95470623 212.5625 217.3125 C211.48825003 226.86657826 210.63003779 236.4065796 210 246 C209.30625765 256.53855689 208.28838523 267.00600827 207.10546875 277.5 C206.07642399 286.81337478 205.38569466 296.12712848 204.77172852 305.47583008 C204.11718919 315.1074877 203.11143748 324.68095042 202.03515625 334.2734375 C201.36198053 340.35262637 200.79608535 346.39097367 200.5 352.5 C200.14571173 359.80990701 199.37842561 367.04046402 198.5625 374.3125 C197.49286825 383.86719134 196.63005239 393.40635739 196 403 C195.38354953 412.36442518 194.55107845 421.67436342 193.5 431 C192.30292193 441.63216886 191.41835515 452.25579275 190.70361328 462.93066406 C190.00375495 473.3086902 189.05267513 483.65242742 188 494 C176.30520276 497.6034759 164.56681534 500.9670567 152.7421875 504.11816406 C143.3531039 506.6242526 133.98653684 509.20585838 124.625 511.8125 C123.86256989 512.02470184 123.10013977 512.23690369 122.31460571 512.45553589 C118.41381932 513.54131863 114.51323668 514.62783068 110.61279297 515.71484375 C104.03082268 517.5489907 97.44763585 519.37875637 90.86422729 521.20773315 C89.41248395 521.61107548 87.96076278 522.01449758 86.50906372 522.41799927 C77.01614425 525.05650868 67.5208162 527.68617938 58.0234375 530.30859375 C56.99138687 530.59366287 55.95933624 530.87873199 54.89601135 531.17243958 C49.84008155 532.56896446 44.78392534 533.96465662 39.72729492 535.35864258 C37.84027754 535.87952269 35.95331386 536.40059737 34.06640625 536.921875 C33.1541478 537.17378098 32.24188934 537.42568695 31.30198669 537.68522644 C26.52506521 539.00859091 21.75489398 540.35260585 16.99169922 541.72460938 C16.02223862 542.00379211 15.05277802 542.28297485 14.05393982 542.57061768 C12.19989981 543.10611431 10.34656262 543.64405201 8.49403381 544.18475342 C7.66963303 544.42316956 6.84523224 544.66158569 5.99584961 544.90722656 C5.27014267 545.11881409 4.54443573 545.33040161 3.79673767 545.54840088 C2 546 2 546 0 546 C-0.33 521.58 -0.66 497.16 -1 472 C7.25 469.69 15.5 467.38 24 465 C28.95957241 463.6005731 28.95957241 463.6005731 33.91894531 462.20043945 C43.97595069 459.36498819 54.05929846 456.6645868 64.17797852 454.05834961 C70.02432966 452.54315712 75.79394479 450.87942342 81.55078125 449.05078125 C87.0202018 447.38455913 92.54282034 445.91810951 98.0625 444.4284668 C103.22280095 443.03408575 108.37589254 441.61884442 113.51953125 440.1640625 C114.61040039 439.85573486 115.70126953 439.54740723 116.82519531 439.22973633 C118.91249684 438.63833423 120.99913887 438.04459707 123.08496094 437.44799805 C128.32210638 435.96622047 133.56607526 434.6109823 138.87280273 433.39916992 C140.02554184 433.13528976 141.17828094 432.87140961 142.36595154 432.59953308 C143.23518753 432.40168716 144.10442352 432.20384125 145 432 C145.04683929 431.34574036 145.09367859 430.69148071 145.14193726 430.01739502 C146.44078319 411.96692696 147.88924316 393.93166887 149.44005966 375.90126038 C149.62857446 373.70842119 149.81647721 371.51553014 150.00430298 369.32263184 C152.60467197 338.99454996 155.38402243 308.68314227 158.19580078 278.37402344 C158.31921986 277.04251755 158.31921986 277.04251755 158.44513226 275.68411255 C158.8268961 271.56555244 159.20927334 267.44705309 159.59364319 263.32873535 C161.12037719 246.89052978 162.54890236 230.44577324 164 214 C78.86 214 -6.28 214 -94 214 C-100 147 -100 147 -100 142 C-10.57 142 78.86 142 171 142 C171.33 136.39 171.66 130.78 172 125 C172.29321141 121.26709846 172.59747033 117.54071951 172.9375 113.8125 C173.02249756 112.85907715 173.10749512 111.9056543 173.19506836 110.92333984 C173.37200402 108.94406503 173.55014113 106.96489725 173.72949219 104.98583984 C174.00213084 101.97648002 174.27089971 98.96679292 174.5390625 95.95703125 C174.71331956 94.01300091 174.88779098 92.06898977 175.0625 90.125 C175.14169678 89.24046143 175.22089355 88.35592285 175.30249023 87.44458008 C175.37927002 86.59919678 175.4560498 85.75381348 175.53515625 84.8828125 C175.600979 84.15465332 175.66680176 83.42649414 175.73461914 82.67626953 C176.12092677 78.78049751 176.567674 74.89093401 177 71 C60.18 71 -56.64 71 -177 71 C-177 70.67 -177 70.34 -177 70 C-118.59 70 -60.18 70 0 70 C0 46.9 0 23.8 0 0 Z " fill="#F06529" transform="translate(289,208)"/>
<path d="M0 0 C116.82 0 233.64 0 354 0 C354 10.12645971 354 10.12645971 353.55688477 15.06713867 C353.4600087 16.16825485 353.36313263 17.26937103 353.26332092 18.40385437 C353.15708908 19.56351212 353.05085724 20.72316986 352.94140625 21.91796875 C352.8327977 23.1339827 352.72418915 24.34999664 352.61228943 25.6028595 C352.38299639 28.16045982 352.15176581 30.7178871 351.91870117 33.27514648 C351.56273064 37.18496671 351.21350636 41.09534665 350.86523438 45.00585938 C350.6410226 47.49743164 350.41642642 49.98896936 350.19140625 52.48046875 C350.08719864 53.64619919 349.98299103 54.81192963 349.87562561 56.01298523 C349.72558327 57.65047478 349.72558327 57.65047478 349.57250977 59.32104492 C349.48590591 60.27540939 349.39930206 61.22977386 349.31007385 62.21305847 C348.98261531 65.1562535 348.48684384 68.07893698 348 71 C258.57 71 169.14 71 77 71 C77.99 79.25 78.98 87.5 80 96 C80.53112088 101.55600526 81.05927414 107.10114209 81.50805664 112.66259766 C81.69180195 114.92803985 81.88562309 117.19248552 82.08007812 119.45703125 C82.20371041 120.94786824 82.32677963 122.43875205 82.44921875 123.9296875 C82.55580811 125.22116699 82.66239746 126.51264648 82.7722168 127.84326172 C83.04868899 132.88850886 83 137.9471834 83 143 C168.14 143 253.28 143 341 143 C341 143.33 341 143.66 341 144 C286.88 144 232.76 144 177 144 C177 167.1 177 190.2 177 214 C124.53 214 72.06 214 18 214 C16.35 194.2 14.7 174.4 13 154 C12.00574793 142.99236257 11.01068071 131.98658873 9.97293091 120.98327637 C9.23255167 113.13299604 8.5067718 105.28135263 7.78125 97.4296875 C7.67070376 96.23393349 7.67070376 96.23393349 7.55792427 95.01402283 C5.89766171 77.03651649 4.31284053 59.0526561 2.76252365 41.06536102 C2.56400146 38.76738003 2.36412338 36.46952077 2.16384888 34.17169189 C1.85156464 30.58634126 1.5428563 27.00070083 1.23706055 23.41479111 C1.07217531 21.48924662 0.90418584 19.56396873 0.73608398 17.63870239 C0.58937256 15.9008699 0.58937256 15.9008699 0.43969727 14.12792969 C0.35422134 13.13138367 0.26874542 12.13483765 0.18067932 11.10809326 C-0.03423113 7.41114704 0 3.70318753 0 0 Z " fill="#EBEAE9" transform="translate(112,279)"/>
<path d="M0 0 C23.43 0 46.86 0 71 0 C74.46831497 28.90262471 74.46831497 28.90262471 75.1875 38.6875 C75.26935547 39.71681641 75.35121094 40.74613281 75.43554688 41.80664062 C75.80079316 46.54870371 76.10542261 51.23976373 76 56 C77.47533203 56.32871094 77.47533203 56.32871094 78.98046875 56.6640625 C87.92573566 58.69364247 96.74602134 61.01478759 105.55419922 63.57226562 C112.78660537 65.66740369 120.04180043 67.66699526 127.3125 69.625 C128.33657959 69.90190674 129.36065918 70.17881348 130.41577148 70.46411133 C138.921432 72.74783218 147.45215176 74.86303794 156 77 C155.67 101.42 155.34 125.84 155 151 C141.61711125 148.02602472 128.50350039 144.60562347 115.36376953 140.71484375 C107.24136235 138.32447333 99.07389127 136.16094726 90.87280273 134.05908203 C85.03302237 132.55455171 79.28133177 130.88680143 73.53515625 129.0546875 C68.70238004 127.61286476 63.82249689 126.37649843 58.9375 125.125 C50.59369361 122.98625884 42.34080483 120.65015501 34.10766602 118.12084961 C27.45483941 116.09296825 20.75660313 114.37456232 13.9921875 112.76171875 C11 112 11 112 9 111 C8.59277344 108.33789062 8.59277344 108.33789062 8.359375 104.65625 C8.31188614 103.96829346 8.26439728 103.28033691 8.21546936 102.5715332 C8.10967558 101.03679348 8.00785783 99.50177619 7.90933228 97.96655273 C7.6286752 93.62182424 7.31386084 89.27965201 6.99609375 84.9375 C6.92488815 83.96228394 6.85368256 82.98706787 6.78031921 81.9822998 C6.11057222 73.04138928 5.30441284 64.11445339 4.47265625 55.1875 C4.40499683 54.46085648 4.33733742 53.73421295 4.26762772 52.98554993 C3.58123856 45.62593075 2.88586885 38.26717403 2.18580723 30.90884399 C1.92045467 28.11331346 1.65752819 25.31755772 1.39501762 22.52175903 C1.21193685 20.58319333 1.02509508 18.64498398 0.83815002 16.70678711 C0.67233681 14.94250366 0.67233681 14.94250366 0.50317383 13.14257812 C0.40563309 12.12103638 0.30809235 11.09949463 0.20759583 10.04699707 C-0.02009664 6.70503073 0 3.34971385 0 0 Z " fill="#EBEAEA" transform="translate(134,529)"/>
<path d="M0 0 C58.41 0 116.82 0 177 0 C177 10.12675312 177 10.12675312 176.55688477 15.08300781 C176.4600087 16.18735168 176.36313263 17.29169556 176.26332092 18.42950439 C176.15708908 19.59229919 176.05085724 20.75509399 175.94140625 21.953125 C175.8327977 23.17151062 175.72418915 24.38989624 175.61228943 25.64520264 C175.38301124 28.20700017 175.15178063 30.76862364 174.91870117 33.33007812 C174.56242185 37.25085999 174.21337164 41.17223767 173.86523438 45.09375 C173.64105273 47.58858014 173.41645768 50.08337317 173.19140625 52.578125 C173.08719864 53.74901672 172.98299103 54.91990845 172.87562561 56.12628174 C172.77559738 57.21801697 172.67556915 58.3097522 172.57250977 59.43457031 C172.44260399 60.86944794 172.44260399 60.86944794 172.31007385 62.33331299 C172.01063155 64.90856685 171.50845158 67.45774212 171 70 C114.57 70 58.14 70 0 70 C0 46.9 0 23.8 0 0 Z " fill="#FEFEFE" transform="translate(289,279)"/>
<path d="M0 0 C13.2 0 26.4 0 40 0 C50.9926851 13.50336009 50.9926851 13.50336009 54.64941406 22.81982422 C56.54562897 27.28477278 59.12052955 31.11557529 62 35 C62.38744385 34.3608667 62.7748877 33.7217334 63.17407227 33.06323242 C64.9689853 30.10390724 66.76573439 27.14570072 68.5625 24.1875 C69.47612305 22.68026367 69.47612305 22.68026367 70.40820312 21.14257812 C82.1057249 1.8942751 82.1057249 1.8942751 84 0 C86.95705321 -0.08868299 89.89065056 -0.11520296 92.84765625 -0.09765625 C94.17729652 -0.09553383 94.17729652 -0.09553383 95.53379822 -0.09336853 C98.37673254 -0.08775215 101.21958931 -0.07519691 104.0625 -0.0625 C105.98502491 -0.05748711 107.90755104 -0.05292384 109.83007812 -0.04882812 C114.55341549 -0.03777741 119.27669458 -0.02050183 124 0 C124.02333048 13.93379272 124.04091349 27.86758243 124.05181217 41.80139065 C124.05704168 48.2706768 124.06414056 54.73994989 124.07543945 61.20922852 C124.08626592 67.446703 124.09227632 73.68416487 124.09487724 79.92164803 C124.09673193 82.30720277 124.10035336 84.69275679 124.10573006 87.0783062 C124.11293729 90.40695591 124.11399108 93.73555279 124.11352539 97.06420898 C124.11712067 98.06114273 124.12071594 99.05807648 124.12442017 100.08522034 C124.1230455 100.98690948 124.12167084 101.88859863 124.12025452 102.81761169 C124.12117631 103.6057447 124.1220981 104.3938777 124.12304783 105.20589352 C124 107 124 107 123 108 C120.26129758 108.08857875 117.54725017 108.11530707 114.80859375 108.09765625 C114.08224731 108.09664917 113.35590088 108.09564209 112.60754395 108.09460449 C109.88417999 108.08935716 107.16083847 108.075396 104.4375 108.0625 C98.353125 108.041875 92.26875 108.02125 86 108 C85.67 91.83 85.34 75.66 85 59 C82.855 62.3825 80.71 65.765 78.5 69.25 C73.42872649 77.23293066 68.31480334 85.1763454 63 93 C59.4370099 92.40235522 59.1084247 92.14843167 56.80859375 89 C56.00585346 87.67408071 55.21595627 86.34032078 54.4375 85 C49.18276626 76.17130852 43.59523782 67.64718573 38 59 C37.67 75.17 37.34 91.34 37 108 C24.79 108 12.58 108 0 108 C0 72.36 0 36.72 0 0 Z " fill="#FEFEFE" transform="translate(294,4)"/>
<path d="M0 0 C12.21 0 24.42 0 37 0 C37 11.55 37 23.1 37 35 C47.56 35 58.12 35 69 35 C69 23.45 69 11.9 69 0 C81.21 0 93.42 0 106 0 C106 35.64 106 71.28 106 108 C93.79 108 81.58 108 69 108 C69 96.12 69 84.24 69 72 C58.44 72 47.88 72 37 72 C37 83.88 37 95.76 37 108 C24.79 108 12.58 108 0 108 C0 72.36 0 36.72 0 0 Z " fill="#FEFEFE" transform="translate(58,4)"/>
<path d="M0 0 C80.85 0 161.7 0 245 0 C243.87491843 16.87622362 243.87491843 16.87622362 243.3515625 22.69458008 C243.23474121 24.00256058 243.11791992 25.31054108 242.99755859 26.65815735 C242.87342393 28.02861998 242.74923647 29.39907784 242.625 30.76953125 C242.49416801 32.22628078 242.36347442 33.68304274 242.23291016 35.13981628 C241.96165129 38.16256003 241.68929838 41.18520224 241.41601562 44.20776367 C241.0682155 48.05461288 240.7223637 51.90163397 240.37722778 55.74872303 C240.04382544 59.46405309 239.70944527 63.17929496 239.375 66.89453125 C239.31274231 67.58704294 239.25048462 68.27955463 239.18634033 68.99305153 C238.49583509 76.66609193 237.78841282 84.33634218 237 92 C225.12020379 95.72346375 213.25389126 99.29757463 201.15039062 102.22314453 C195.80088796 103.52411446 190.52095723 104.97381797 185.25 106.5625 C179.57061871 108.27127513 173.87640038 109.86288033 168.125 111.3125 C167.45243164 111.48402588 166.77986328 111.65555176 166.08691406 111.83227539 C163.30353083 112.5216549 160.88099422 113 158 113 C158 76.04 158 39.08 158 1 C105.86 1 53.72 1 0 1 C0 0.67 0 0.34 0 0 Z " fill="#F0652A" transform="translate(131,493)"/>
<path d="M0 0 C33 0 66 0 100 0 C100 23.76 100 47.52 100 72 C68.98 72 37.96 72 6 72 C5.01 61.048125 4.02 50.09625 3 38.8125 C2.68675781 35.36014893 2.37351563 31.90779785 2.05078125 28.35083008 C1.80451084 25.61541303 1.55840578 22.8799811 1.3125 20.14453125 C1.21569946 19.08319221 1.21569946 19.08319221 1.11694336 18.00041199 C0.92613697 15.90646262 0.73815677 13.81227637 0.55078125 11.71801758 C0.44419189 10.53887283 0.33760254 9.35972809 0.2277832 8.14485168 C0.03157507 5.43593605 0 2.71601207 0 0 Z " fill="#E44D26" transform="translate(189,350)"/>
<path d="M0 0 C33.33 0 66.66 0 101 0 C101 11.88 101 23.76 101 36 C90.44 36 79.88 36 69 36 C69 59.76 69 83.52 69 108 C56.79 108 44.58 108 32 108 C32 84.24 32 60.48 32 36 C21.44 36 10.88 36 0 36 C0 24.12 0 12.24 0 0 Z " fill="#FEFEFE" transform="translate(179,4)"/>
<path d="M0 0 C12.54 0 25.08 0 38 0 C38 23.76 38 47.52 38 72 C54.5 72 71 72 88 72 C88 83.88 88 95.76 88 108 C58.96 108 29.92 108 0 108 C0 72.36 0 36.72 0 0 Z " fill="#FEFEFE" transform="translate(434,4)"/>
</svg>
